<svg version="1.1" id="Layer_1" xmlns="http://www.w3.org/2000/svg" xmlns:xlink="http://www.w3.org/1999/xlink" x="0px" y="0px"
	 width="100%" viewBox="0 0 1024 1024" enable-background="new 0 0 1024 1024" xml:space="preserve">
<path fill="#000000" opacity="1.000000" stroke="none" 
	d="
M422.432831,829.912231 
	C423.768250,843.738098 425.031647,857.134521 426.320312,870.528503 
	C426.631866,873.766663 427.026764,876.996765 427.537262,881.626709 
	C434.177185,870.871582 440.098419,861.292664 446.006378,851.705505 
	C448.714630,847.310791 451.606689,843.011230 454.018585,838.458252 
	C455.694794,835.294006 457.810577,834.728333 460.951080,835.716064 
	C463.325684,836.462952 465.790192,836.925903 468.217926,837.501648 
	C476.038818,839.356140 476.295471,839.328979 477.073242,847.388794 
	C479.451263,872.031128 481.616638,896.693909 483.839600,921.351074 
	C483.880432,921.803772 483.609283,922.284668 483.322021,923.354797 
	C477.397064,923.097900 471.721039,921.352234 466.089935,919.703674 
	C463.571411,918.966370 464.031555,916.172424 463.856842,914.067932 
	C462.467407,897.330811 461.104523,880.591492 459.606140,862.298279 
	C457.945648,864.763184 456.967499,866.104614 456.103027,867.515564 
	C448.012573,880.720825 439.856812,893.887512 431.929169,907.190063 
	C430.114471,910.235168 428.318207,911.249084 424.708588,910.411743 
	C411.650238,907.382446 411.700500,907.510925 410.702393,893.887817 
	C409.765930,881.106201 408.646912,868.337830 407.563019,855.567383 
	C407.452545,854.265564 407.031403,852.989990 406.647552,851.205444 
	C404.300629,853.019470 403.377380,855.363586 402.137848,857.400513 
	C394.520264,869.918762 386.853058,882.410156 379.487885,895.076477 
	C377.540771,898.424988 375.472107,899.565552 371.871674,898.253235 
	C367.873322,896.795837 363.374847,896.885193 359.763733,894.638245 
	C359.420929,892.871033 360.386627,891.835938 361.061096,890.718567 
	C373.883667,869.476990 386.778015,848.278259 399.489807,826.970703 
	C401.491455,823.615540 403.476990,822.152283 407.468750,823.548096 
	C411.057251,824.802979 414.901123,825.318176 418.617340,826.221313 
	C420.393921,826.653015 422.311829,827.026062 422.432831,829.912231 
z"/>
<path fill="#000000" opacity="1.000000" stroke="none" 
	d="
M211.239395,737.299927 
	C202.640106,742.454895 194.295700,747.333923 186.107040,752.461670 
	C183.374268,754.172974 181.776520,753.971252 180.132019,751.127930 
	C173.710968,740.025940 166.585464,729.293457 160.755402,717.894958 
	C146.551926,690.125244 162.993225,660.575012 194.167450,658.261597 
	C207.805588,657.249573 219.155197,663.659241 227.433609,674.451416 
	C235.962051,685.569519 242.231583,698.184143 249.719421,710.000061 
	C251.636047,713.024536 249.550980,714.144470 247.478378,715.397217 
	C235.502396,722.635925 223.529205,729.879272 211.239395,737.299927 
M183.683182,682.162476 
	C177.054169,686.453186 173.481491,692.564453 173.323547,700.435425 
	C173.089752,712.086792 180.863235,720.072998 186.145493,729.554688 
	C199.217896,721.632202 211.552765,714.110291 223.945328,706.684631 
	C226.483719,705.163635 226.990921,703.538025 225.357590,701.021545 
	C222.915619,697.259277 220.793854,693.284180 218.268356,689.582092 
	C209.402206,676.585510 197.959320,673.998108 183.683182,682.162476 
z"/>
<path fill="#000000" opacity="1.000000" stroke="none" 
	d="
M910.484802,469.329346 
	C900.714355,483.569061 887.024414,488.729858 870.811707,487.019226 
	C855.557129,485.409729 845.689514,475.878784 840.111816,462.250031 
	C834.202271,447.810364 833.296875,432.126801 830.479919,416.930786 
	C829.815674,413.347626 832.873047,413.384552 834.990479,412.998291 
	C848.748230,410.488739 862.534912,408.138519 876.300476,405.670898 
	C885.955078,403.940186 895.603882,402.170898 905.226501,400.272980 
	C907.657043,399.793610 909.142883,400.187500 909.539917,402.815552 
	C911.745850,417.417297 916.094849,431.667480 916.419250,446.586914 
	C916.594971,454.668121 914.637085,462.062592 910.484802,469.329346 
M851.312500,441.302216 
	C852.099060,444.870178 852.608704,448.527435 853.724487,451.989288 
	C857.005737,462.170227 866.199219,468.348602 876.611511,467.658112 
	C889.333374,466.814484 897.464478,460.067627 899.822510,448.854584 
	C901.397644,441.364594 898.617310,434.427399 897.825500,427.232605 
	C897.327209,422.704865 895.192627,421.737701 891.111694,422.565186 
	C882.652954,424.280365 874.127747,425.667908 865.669189,427.383942 
	C860.370361,428.458954 854.837708,428.619446 849.513245,430.940887 
	C850.118164,434.287506 850.675964,437.373383 851.312500,441.302216 
z"/>
<path fill="#000000" opacity="1.000000" stroke="none" 
	d="
M270.741730,749.221436 
	C287.525757,747.000488 300.193481,755.331604 306.699280,772.853027 
	C309.432648,768.644165 311.785797,770.655579 314.433289,772.900940 
	C323.763336,780.813660 323.855927,780.802002 315.928619,790.136353 
	C301.284485,807.379578 286.505280,824.508728 271.960236,841.834839 
	C269.140411,845.193848 267.223358,845.273254 263.940308,842.409790 
	C254.196701,833.911316 254.171432,834.114929 262.320068,823.913757 
	C265.187500,820.324036 268.776642,817.255859 271.100494,812.733337 
	C268.004883,811.745972 265.102325,811.106262 262.439453,809.925781 
	C240.134247,800.037903 237.281372,771.475525 256.966187,755.787537 
	C260.939606,752.620911 265.355286,750.420410 270.741730,749.221436 
M293.744110,783.140503 
	C295.114655,774.574707 287.932159,767.547729 280.010010,766.561646 
	C273.154755,765.708435 264.463593,772.746948 262.570618,780.411011 
	C260.723816,787.888184 264.709412,795.132629 272.204498,797.921875 
	C280.967987,801.183044 290.669922,794.877014 293.744110,783.140503 
z"/>
<path fill="#000000" opacity="1.000000" stroke="none" 
	d="
M839.204285,303.506744 
	C852.664917,310.177765 859.016968,321.103210 857.986145,336.274475 
	C864.978027,332.453064 871.715210,329.043060 878.156128,325.143768 
	C881.761780,322.960938 883.455627,323.579407 885.424194,327.239746 
	C891.856323,339.199860 891.970276,339.083801 880.006714,345.623962 
	C860.593933,356.236389 841.162048,366.816193 821.867004,377.639465 
	C818.043762,379.784027 815.914429,379.562439 814.283386,375.369720 
	C813.447021,373.219391 812.110779,371.256805 810.938477,369.245453 
	C809.341614,366.505737 807.677795,363.799683 812.801941,361.815125 
	C802.790222,356.775360 797.238098,349.142792 795.101440,339.262695 
	C793.630310,332.459900 794.383301,325.716003 797.726990,319.376068 
	C803.851196,307.764374 822.644409,296.578949 839.204285,303.506744 
M842.361084,342.702148 
	C843.660583,340.342834 844.643677,337.870117 844.598511,335.134338 
	C844.489380,328.516479 839.826477,322.567474 833.405029,320.757751 
	C826.715027,318.872284 817.622925,322.669312 813.954712,328.880493 
	C810.705627,334.382202 811.585632,342.039490 816.036987,347.000580 
	C820.571838,352.054749 827.545532,353.079895 834.339417,349.661438 
	C837.363342,348.139954 839.896606,346.013397 842.361084,342.702148 
z"/>
<path fill="#000000" opacity="1.000000" stroke="none" 
	d="
M242.709137,311.619080 
	C244.204346,325.087097 237.672546,336.429321 223.690079,344.386902 
	C229.841537,348.251465 235.553757,352.120819 241.541000,355.503357 
	C245.565903,357.777222 245.874573,359.837555 243.328903,363.686737 
	C236.136124,374.562561 236.341522,374.609863 225.246613,367.633057 
	C206.801514,356.034363 188.354156,344.437073 169.778778,333.049561 
	C165.898804,330.670990 164.978836,328.466553 167.940475,324.850891 
	C169.197113,323.316772 170.303207,321.601898 171.171432,319.819916 
	C172.673935,316.736206 174.449051,314.392487 178.361557,315.954865 
	C179.804535,293.535675 196.147003,283.618011 208.841507,283.218567 
	C224.097336,282.738556 239.685593,295.593018 242.709137,311.619080 
M209.937027,302.417450 
	C201.646133,302.068573 196.630264,304.984070 194.096039,311.625000 
	C190.874344,320.067413 195.074478,328.528442 204.407120,332.396271 
	C211.656616,335.400818 218.886032,333.090607 222.975372,326.462585 
	C227.179123,319.649170 226.060501,312.572205 219.936111,307.305573 
	C217.247543,304.993561 214.156189,303.453827 209.937027,302.417450 
z"/>
<path fill="#000000" opacity="1.000000" stroke="none" 
	d="
M723.317383,766.261169 
	C719.439026,761.066040 715.866821,756.037354 712.003967,751.242920 
	C709.656067,748.328918 709.546143,746.422668 712.800537,743.953247 
	C723.709351,735.675720 723.656616,735.537964 731.899658,746.348450 
	C745.128357,763.697815 758.212036,781.159119 771.589661,798.392517 
	C774.324158,801.915161 774.178528,804.039124 770.476318,806.294556 
	C768.638794,807.414124 766.966797,808.830688 765.317810,810.228394 
	C762.749146,812.405823 760.214600,814.172546 757.122925,810.325745 
	C753.023621,821.653625 745.433289,828.641357 734.412292,831.505310 
	C717.665039,835.857300 699.952026,824.045166 695.747253,806.005310 
	C691.860596,789.330139 702.582336,773.071716 719.730652,769.314575 
	C721.025940,769.030823 724.503174,770.398071 723.317383,766.261169 
M743.146118,792.543457 
	C737.351013,782.541382 728.127808,779.361084 720.350220,784.683105 
	C713.051697,789.677246 711.306396,797.478882 715.754944,805.224792 
	C720.454163,813.407166 728.523376,816.645752 735.909363,813.313965 
	C743.885620,809.715759 746.692017,802.297546 743.146118,792.543457 
z"/>
<path fill="#000000" opacity="1.000000" stroke="none" 
	d="
M430.341370,125.460716 
	C417.628418,128.790878 417.628418,128.790878 420.594910,141.338547 
	C422.197632,148.117676 422.199860,148.127350 429.236145,146.475113 
	C437.328156,144.574966 445.447845,142.779587 453.490448,140.688461 
	C457.145386,139.738159 458.740631,141.015045 459.298615,144.494720 
	C461.174713,156.193604 464.510406,154.625763 450.754700,157.710175 
	C443.933868,159.239594 437.133728,160.868668 430.288239,162.277542 
	C426.950867,162.964386 425.898285,164.420181 426.836853,167.872360 
	C428.493256,173.964691 429.629852,180.196365 431.166138,186.324051 
	C432.090668,190.011597 431.459717,191.992920 427.221039,192.983780 
	C413.258453,196.247742 413.347473,196.405548 410.181152,182.438995 
	C405.660309,162.497589 401.173950,142.546783 396.397156,122.666229 
	C395.394897,118.494881 396.587128,117.035881 400.506378,116.166237 
	C417.058533,112.493492 433.582458,108.686066 450.065369,104.714745 
	C453.677612,103.844437 455.159180,104.792114 455.899231,108.357216 
	C458.597015,121.352867 460.162506,118.774872 447.817657,121.626724 
	C442.142883,122.937691 436.442505,124.137894 430.341370,125.460716 
z"/>
<path fill="#000000" opacity="1.000000" stroke="none" 
	d="
M701.200134,212.517883 
	C708.102966,197.219086 721.382141,189.556702 736.128235,192.090118 
	C751.229614,194.684555 763.268494,207.416824 764.630432,222.683167 
	C765.408264,231.401978 762.216919,238.951614 756.756775,245.688309 
	C754.474731,248.503815 752.589172,247.379227 750.422363,245.705933 
	C741.463440,238.787537 732.483154,231.896576 723.479370,225.036667 
	C721.801636,223.758392 720.344421,222.041229 717.955444,221.755142 
	C715.655151,223.961563 716.141052,226.612061 716.798584,229.178467 
	C718.690491,236.563156 726.464417,242.933197 734.557312,244.001785 
	C736.553101,244.265305 739.511719,243.445145 739.969604,246.321274 
	C740.586609,250.196701 742.239502,254.191208 740.582886,258.092682 
	C739.851868,259.814453 737.653015,259.307709 736.029724,259.348511 
	C712.751953,259.933563 694.128296,235.184357 701.200134,212.517883 
M738.776550,208.569809 
	C733.804688,206.789902 729.223267,206.815613 724.822937,211.652893 
	C732.252625,217.293457 739.284851,222.632248 746.370544,228.011658 
	C750.904236,220.787811 748.101074,213.717163 738.776550,208.569809 
z"/>
<path fill="#000000" opacity="1.000000" stroke="none" 
	d="
M338.847961,807.202515 
	C336.990936,806.905579 335.526337,806.620178 334.047974,806.479553 
	C332.204773,806.304199 329.711151,808.289429 328.633453,805.811279 
	C326.994324,802.041931 325.609924,798.031494 325.871063,793.816406 
	C325.962708,792.337463 327.779510,792.147278 329.040009,791.822266 
	C343.088898,788.199280 363.439545,799.214050 370.083557,814.014282 
	C376.128021,827.478882 370.817566,844.411377 357.838806,853.056763 
	C345.917511,860.997803 328.581757,859.180664 317.233154,848.800659 
	C305.752502,838.299805 303.438599,823.906555 310.769745,810.249146 
	C312.808380,806.451294 314.699524,805.271851 318.850922,807.694824 
	C329.048248,813.646545 339.503906,819.155945 349.862335,824.831055 
	C351.005829,825.457581 352.192322,826.005615 353.361359,826.591309 
	C356.979797,819.110352 350.959656,811.035645 338.847961,807.202515 
M330.348419,827.264587 
	C328.445953,826.411255 326.911469,824.596619 324.549683,824.955505 
	C321.915405,830.889099 324.317841,836.881836 330.792297,840.689026 
	C337.201294,844.457581 343.676514,843.350586 348.250549,837.290833 
	C342.460724,834.039429 336.725311,830.818542 330.348419,827.264587 
z"/>
<path fill="#000000" opacity="1.000000" stroke="none" 
	d="
M656.391968,865.954346 
	C648.237366,862.624084 643.059753,856.788452 639.130493,849.547058 
	C637.058838,845.729126 637.301147,843.554810 641.798462,841.581787 
	C652.759827,836.772949 663.462646,831.374146 674.257385,826.187378 
	C675.284851,825.693604 676.226257,825.020508 677.412842,824.307373 
	C675.847656,820.549805 672.617859,819.620300 669.366821,819.369385 
	C660.862732,818.713135 653.928833,821.957886 649.472534,829.235352 
	C647.450317,832.537720 645.701660,832.979309 642.281494,831.603699 
	C632.331177,827.601746 631.428223,825.479492 638.803650,817.572266 
	C649.578918,806.020020 662.867432,800.118530 678.765564,804.378174 
	C691.623474,807.823181 698.659851,817.443542 700.907410,830.144714 
	C703.112305,842.604370 698.186523,852.755493 688.235413,860.214905 
	C678.828064,867.266663 668.342896,869.993042 656.391968,865.954346 
M683.928284,838.710266 
	C683.754700,837.051880 683.717407,834.713440 681.257019,835.760437 
	C673.524841,839.050842 665.794739,842.403931 658.507263,846.794739 
	C662.366577,851.960815 666.711792,853.581909 672.272278,852.069214 
	C678.735229,850.310974 683.330505,846.730896 683.928284,838.710266 
z"/>
<path fill="#000000" opacity="1.000000" stroke="none" 
	d="
M146.027985,642.859436 
	C140.428757,634.156799 137.306503,625.230652 139.630127,615.101257 
	C142.485687,602.652832 150.727158,595.466248 162.482422,591.604858 
	C166.148056,590.400696 167.189575,592.456970 168.104782,595.254272 
	C171.729095,606.332031 175.405838,617.392578 179.079285,628.454163 
	C179.594620,630.005981 180.199585,631.528076 180.769287,633.080811 
	C185.942062,630.768005 188.681625,625.122253 187.429520,618.980835 
	C186.242783,613.160156 184.041580,607.717285 178.845062,604.249146 
	C176.255112,602.520630 176.406311,600.865417 177.697510,598.405273 
	C182.934006,588.427917 186.190277,587.775269 193.299255,596.689453 
	C201.785110,607.330261 205.601059,619.567139 202.042282,633.155579 
	C198.863113,645.294556 190.391647,652.478699 178.447968,655.080566 
	C165.415787,657.919678 154.461212,653.922791 146.027985,642.859436 
M156.023209,615.764893 
	C152.762711,621.795593 153.438644,627.634399 157.293640,633.045837 
	C160.175674,637.091553 164.376541,638.490906 169.929062,638.220642 
	C167.285919,628.801331 164.486221,620.138611 161.200500,611.671875 
	C158.662491,612.270691 157.517624,613.680786 156.023209,615.764893 
z"/>
<path fill="#000000" opacity="1.000000" stroke="none" 
	d="
M256.902893,265.901306 
	C254.011383,269.089294 250.781021,271.507599 248.466324,275.163910 
	C250.974960,277.573120 253.701645,278.008942 256.767944,277.168671 
	C265.208191,274.855743 270.421478,269.377563 272.908051,261.042175 
	C273.467926,259.165344 272.900055,256.146545 275.879303,255.927124 
	C279.648682,255.649506 283.531891,255.061005 287.194244,256.608917 
	C288.198700,257.033447 288.293274,258.220886 288.290649,259.231995 
	C288.287201,260.561829 288.299988,261.905945 288.121704,263.218903 
	C286.112305,278.013794 268.806946,293.668671 253.798615,294.305023 
	C240.139359,294.884216 227.724106,286.888458 222.734161,274.298706 
	C217.570297,261.270142 221.573380,246.238968 232.715500,236.819794 
	C246.392761,225.257446 264.222748,226.114212 276.293396,238.763474 
	C278.577606,241.157242 278.957581,242.852173 276.440826,245.393478 
	C269.881226,252.017044 263.565369,258.882019 256.902893,265.901306 
M251.361420,244.593872 
	C238.634109,246.900757 232.319702,257.901489 239.271744,266.711121 
	C246.228378,260.902252 252.096893,254.110870 258.274414,247.669739 
	C256.409119,245.247177 254.130768,245.235626 251.361420,244.593872 
z"/>
<path fill="#000000" opacity="1.000000" stroke="none" 
	d="
M825.384705,680.519775 
	C830.869690,668.209778 836.196899,656.251831 841.674683,643.955811 
	C836.298767,642.667786 832.420898,644.667786 829.464905,647.807190 
	C824.520020,653.058838 821.555603,659.313416 823.046997,666.840332 
	C823.588928,669.575134 822.871887,671.125916 820.149902,672.208252 
	C809.411743,676.477905 807.411804,675.272583 807.677002,663.487793 
	C807.974731,650.255981 813.195740,639.175476 823.980164,631.338867 
	C835.205322,623.181946 848.691528,623.631409 860.850586,631.878479 
	C870.905273,638.698120 875.861084,652.534119 872.755798,665.115723 
	C867.442627,686.642578 847.608398,696.956726 828.232300,688.380127 
	C824.538940,686.745422 822.710022,684.788086 825.384705,680.519775 
M846.076538,662.465515 
	C844.602539,666.256531 842.096313,669.666809 841.567139,673.841309 
	C848.685181,675.599609 855.085693,671.896362 857.707275,664.739441 
	C860.172363,658.010193 858.143616,652.032654 852.134155,649.127258 
	C850.206299,653.341919 848.280090,657.553101 846.076538,662.465515 
z"/>
<path fill="#000000" opacity="1.000000" stroke="none" 
	d="
M169.098907,468.241852 
	C170.136505,467.354950 170.896500,466.705811 171.679764,466.086060 
	C177.846573,461.206635 178.481400,461.287659 182.221191,468.204926 
	C191.587631,485.529388 184.566864,515.427307 162.153290,520.604553 
	C149.439331,523.541321 138.180359,520.665833 129.694107,510.453308 
	C120.512909,499.404449 119.381439,486.829529 125.122971,473.907135 
	C130.379959,462.075348 140.319489,456.641693 152.919037,455.949890 
	C160.566818,455.529938 161.597321,457.182434 160.997940,464.932648 
	C160.125763,476.210022 159.680359,487.520721 159.097092,498.819489 
	C159.048264,499.765350 159.333572,500.728455 159.492081,501.892395 
	C164.076950,501.672821 166.739685,498.978546 168.475250,495.498535 
	C171.958771,488.513763 171.993195,481.352142 168.224045,474.442749 
	C166.948227,472.103973 166.227585,470.240662 169.098907,468.241852 
M148.423691,486.035431 
	C148.587662,482.100983 149.159500,478.155273 148.339081,474.220398 
	C141.701752,475.164368 138.450378,478.342834 137.024719,485.080322 
	C135.714310,491.273132 138.060760,497.681549 142.658585,500.466980 
	C146.073502,502.535858 147.409637,501.856934 147.642487,497.910156 
	C147.857971,494.257446 148.047424,490.603180 148.423691,486.035431 
z"/>
<path fill="#000000" opacity="1.000000" stroke="none" 
	d="
M843.890991,513.189758 
	C850.496948,499.705902 861.481995,492.873138 874.633240,493.791199 
	C888.274658,494.743408 898.893311,502.753662 903.160889,515.311218 
	C907.632935,528.470215 903.989136,543.044006 893.996948,551.896729 
	C887.516663,557.638000 879.848755,559.614746 871.334717,559.323730 
	C866.905029,559.172302 865.755920,557.226929 866.034607,552.987305 
	C866.831604,540.861206 867.244507,528.709595 867.784058,516.566956 
	C867.827332,515.593201 867.683472,514.611145 867.626282,513.629211 
	C861.639038,514.097229 857.155945,518.810974 856.371155,525.577515 
	C855.710815,531.270935 855.665894,536.940491 859.350220,541.869019 
	C860.886353,543.923950 860.420654,545.536438 858.420288,546.928345 
	C857.739136,547.402344 857.111267,547.958435 856.488953,548.510681 
	C849.496643,554.715942 848.225464,554.534912 844.236206,546.077820 
	C839.175720,535.349854 839.820007,524.456543 843.890991,513.189758 
M888.735229,534.086792 
	C892.275635,523.440308 888.465393,514.707031 879.491699,513.947266 
	C879.396912,522.857849 877.536133,531.673462 878.624512,540.858337 
	C883.332031,540.796570 886.187744,538.300964 888.735229,534.086792 
z"/>
<path fill="#000000" opacity="1.000000" stroke="none" 
	d="
M156.896927,415.266174 
	C141.065125,404.089142 138.325989,384.223907 149.944855,366.783661 
	C157.105576,356.035248 167.309067,351.272614 179.951340,353.011597 
	C193.018661,354.809021 202.420898,361.898834 206.598328,374.818390 
	C210.839752,387.935944 205.359283,404.749664 194.083389,413.915131 
	C183.680420,422.371063 170.650406,422.909332 156.896927,415.266174 
M190.519089,392.773346 
	C193.472122,383.446594 190.048798,376.247528 181.018219,372.793518 
	C172.055618,369.365479 164.090866,372.087128 160.684097,379.741943 
	C157.037796,387.934967 159.967926,395.920776 168.066544,399.862061 
	C177.405884,404.407227 185.455551,402.083801 190.519089,392.773346 
z"/>
<path fill="#000000" opacity="1.000000" stroke="none" 
	d="
M775.144897,714.835571 
	C791.364563,709.236755 807.205566,715.072632 814.985718,729.230896 
	C822.404053,742.730713 818.007385,761.162903 804.698792,771.831482 
	C795.230835,779.421326 784.597839,782.546936 772.958191,777.985901 
	C761.057678,773.322693 753.940186,764.341675 751.952271,751.550659 
	C750.092285,739.582275 758.697632,723.765503 770.757996,716.994324 
	C772.063171,716.261475 773.436584,715.650330 775.144897,714.835571 
M799.871033,740.783936 
	C794.347656,731.189331 784.846985,727.524658 777.000244,731.961853 
	C770.073059,735.879089 767.169495,744.402893 770.421509,751.274536 
	C774.216736,759.294006 784.158020,763.907593 791.549500,761.079712 
	C799.207092,758.150085 802.628784,750.384338 799.871033,740.783936 
z"/>
<path fill="#000000" opacity="1.000000" stroke="none" 
	d="
M780.545044,262.409149 
	C771.774841,268.561768 764.414001,275.828033 756.575623,282.520538 
	C754.141663,284.598633 752.720886,284.666962 750.461121,282.265259 
	C740.614014,271.799591 740.480469,271.796936 751.150574,262.360718 
	C761.743042,252.993073 772.587708,243.908218 783.089661,234.441910 
	C786.686951,231.199417 789.300415,230.486847 792.109497,235.046982 
	C793.055359,236.582443 794.467285,237.838669 795.710693,239.181320 
	C798.210632,241.880722 800.729553,244.552841 795.514954,247.957062 
	C802.814209,249.599274 808.236267,252.812775 812.754272,257.722351 
	C822.702332,268.532654 823.253540,282.136261 812.858337,292.570099 
	C804.191467,301.269196 794.449158,308.895599 785.203918,317.020782 
	C783.323547,318.673370 781.697021,318.716980 780.220703,316.553528 
	C780.033691,316.279449 779.814453,316.025940 779.596802,315.774384 
	C770.130493,304.833038 770.163086,304.872253 781.243835,295.584625 
	C785.960693,291.631073 790.600586,287.575043 795.110046,283.387451 
	C801.264648,277.672150 802.461731,272.438690 799.110291,267.182587 
	C795.045837,260.808289 788.508484,259.034119 780.545044,262.409149 
z"/>
<path fill="#000000" opacity="1.000000" stroke="none" 
	d="
M645.977173,206.009399 
	C639.639893,207.461227 634.682068,203.958557 629.400513,201.977646 
	C627.482605,201.258286 628.773560,199.016998 629.253113,197.499908 
	C632.161316,188.300705 635.270020,179.161499 638.000061,169.910263 
	C641.155945,159.216599 635.036804,152.091812 623.926514,153.263916 
	C617.956177,153.893784 614.968994,158.048462 613.157043,163.114197 
	C610.189514,171.410797 607.237427,179.733414 604.828491,188.201431 
	C603.449829,193.047714 601.191711,193.598648 596.884644,192.028915 
	C583.327637,187.087967 584.504944,190.157822 588.939392,176.390259 
	C593.478027,162.299194 598.169617,148.256592 602.596924,134.130936 
	C603.793213,130.314285 605.547852,128.852737 609.448547,130.532135 
	C611.577820,131.448868 613.835022,132.131943 616.094421,132.668182 
	C619.647583,133.511505 622.077820,134.933350 619.590271,140.207565 
	C628.226074,136.769958 635.777588,137.532455 643.199463,140.685745 
	C655.201416,145.784912 661.087463,156.909103 657.573730,169.515869 
	C654.183167,181.680878 650.016174,193.629486 645.977173,206.009399 
z"/>
<path fill="#000000" opacity="1.000000" stroke="none" 
	d="
M578.013611,173.977661 
	C564.700195,188.937759 538.926392,187.027100 526.825195,174.421173 
	C517.268066,164.465378 515.407715,152.699280 520.303467,140.189926 
	C525.053162,128.053787 534.669678,121.751862 547.589539,120.733986 
	C559.911621,119.763222 570.945312,123.042458 578.962036,132.798462 
	C588.905701,144.899445 588.345093,161.214203 578.013611,173.977661 
M542.267761,139.706131 
	C537.570435,144.092010 536.708740,149.705170 537.191284,155.722366 
	C537.660339,161.571213 540.607727,165.883072 546.052124,167.889206 
	C551.655090,169.953796 557.214233,169.561707 561.895508,165.255692 
	C567.632324,159.978729 568.771667,148.486496 564.244751,142.233978 
	C559.552002,135.752472 550.778320,134.529236 542.267761,139.706131 
z"/>
<path fill="#000000" opacity="1.000000" stroke="none" 
	d="
M836.856201,600.174988 
	C831.925659,597.750061 830.910583,594.586121 832.351868,589.445068 
	C836.351990,575.176086 832.644592,577.949158 847.833374,575.311523 
	C864.702576,572.382080 881.619263,569.725769 898.518311,566.969177 
	C899.155457,566.865295 899.824341,566.955994 901.405029,566.955994 
	C900.735657,573.063354 899.569763,578.805725 897.180725,584.169861 
	C896.270569,586.213501 893.424438,585.939209 891.320801,586.268738 
	C879.998352,588.042114 868.670776,589.782593 857.349487,591.563354 
	C856.725464,591.661560 856.142029,592.018555 854.828979,592.534180 
	C863.255310,598.754211 871.217712,604.678467 879.229797,610.534790 
	C890.370056,618.677734 890.388062,618.656616 886.422241,631.919617 
	C886.190613,632.694092 885.883606,633.446045 885.236328,635.261169 
	C868.527771,624.012390 852.989990,611.978394 836.856201,600.174988 
z"/>
<path fill="#000000" opacity="1.000000" stroke="none" 
	d="
M159.560333,558.623962 
	C161.418472,557.532043 162.966080,556.608704 165.441727,555.131775 
	C153.732086,551.807922 142.938629,548.707520 132.123306,545.685425 
	C123.006523,543.138000 122.919624,543.186584 121.918106,533.961914 
	C121.655579,531.543823 120.978073,529.069885 121.639336,526.669495 
	C123.401772,525.299255 124.991882,526.413391 126.482292,526.820496 
	C144.458633,531.730530 162.391312,536.802063 180.391617,541.621460 
	C184.169449,542.632874 186.110870,544.059814 186.754669,548.390930 
	C188.744217,561.775208 189.033813,561.772034 177.552505,568.507935 
	C163.624420,576.679199 149.660934,584.790283 135.695190,592.897156 
	C134.293060,593.710999 132.960007,594.812256 130.733734,594.739258 
	C128.655884,589.517212 128.751053,583.848633 127.948364,578.377563 
	C127.658905,576.404541 129.636307,575.704773 131.061874,574.888916 
	C140.452805,569.514648 149.852783,564.156189 159.560333,558.623962 
z"/>
<path fill="#000000" opacity="1.000000" stroke="none" 
	d="
M675.808105,155.661041 
	C677.346680,156.267380 678.623169,156.715103 679.736450,157.420410 
	C682.201538,158.982071 683.516174,158.007996 684.883911,155.752823 
	C690.479065,146.527603 690.538330,146.563583 700.308533,151.580490 
	C706.626709,154.824783 706.622864,154.822739 703.316528,161.033325 
	C702.612854,162.355133 702.012268,163.735596 701.251831,165.022598 
	C699.937927,167.246201 700.461975,168.774612 702.818542,169.754715 
	C703.276367,169.945145 703.683960,170.252945 704.129211,170.477875 
	C714.729858,175.832977 713.101074,174.387650 708.042664,184.606674 
	C706.720886,187.277008 705.182556,187.861542 702.520996,186.353622 
	C699.511597,184.648712 696.644104,182.584061 692.609558,181.584335 
	C688.258667,189.098694 683.833252,196.678848 680.595154,204.815811 
	C678.984253,208.863937 681.483521,212.544632 686.596924,213.285095 
	C691.453918,213.988449 691.600952,216.335144 690.916138,220.141632 
	C689.322083,229.001511 687.891846,229.896210 679.212891,226.847824 
	C662.293640,220.905121 657.126404,207.694794 665.552734,192.027710 
	C668.390320,186.751755 671.020569,181.361969 673.947754,176.137497 
	C675.458984,173.440247 675.557617,171.493881 672.318604,170.299118 
	C668.369202,168.842316 667.665771,166.414917 670.234009,163.108170 
	C672.106689,160.697083 672.091370,156.968597 675.808105,155.661041 
z"/>
<path fill="#000000" opacity="1.000000" stroke="none" 
	d="
M829.354065,722.688110 
	C816.141174,714.249573 803.278076,705.933838 790.283691,697.828613 
	C786.974304,695.764404 785.988647,694.089050 788.368591,690.389038 
	C795.751282,678.911011 795.641907,678.751099 807.256775,686.132141 
	C826.224854,698.186096 845.093628,710.396912 864.109802,722.374084 
	C867.154602,724.291748 867.507629,725.909119 865.442261,728.682251 
	C863.457825,731.346741 861.597290,734.141846 860.022766,737.063110 
	C858.255981,740.341003 856.322388,740.034790 853.615112,738.255554 
	C845.686523,733.045105 837.649597,727.999329 829.354065,722.688110 
z"/>
<path fill="#000000" opacity="1.000000" stroke="none" 
	d="
M106.271156,433.185242 
	C107.121658,429.043427 107.993622,425.317200 108.624474,421.550568 
	C109.099960,418.711639 110.155693,417.587006 113.321533,418.252045 
	C138.388321,423.517822 163.483612,428.648407 188.582245,433.761169 
	C191.736038,434.403625 193.002777,435.634247 192.420395,439.211212 
	C190.132797,453.261475 190.250092,453.325897 176.323853,450.472565 
	C154.659515,446.033813 132.998764,441.575714 111.369461,436.970947 
	C109.427551,436.557526 106.259995,437.196259 106.271156,433.185242 
z"/>
<path fill="#000000" opacity="1.000000" stroke="none" 
	d="
M632.768799,862.325195 
	C634.150146,867.193726 635.127319,871.778015 636.721252,876.136658 
	C638.268860,880.368835 636.890320,882.331299 632.766418,883.134949 
	C630.978638,883.483398 629.207947,884.005981 627.493225,884.625793 
	C623.637573,886.019409 619.946228,887.193787 619.131165,880.418762 
	C615.153503,885.881775 610.768005,889.478760 605.243530,891.703979 
	C602.236572,892.915161 600.457458,892.404968 599.734131,889.135742 
	C599.590820,888.487976 599.350769,887.862305 599.186279,887.218506 
	C598.406555,884.166382 596.775513,881.023071 597.077637,878.079468 
	C597.476379,874.194397 602.119324,875.264893 604.687012,873.720398 
	C610.764587,870.064331 613.261658,864.661682 611.263550,856.564697 
	C609.193726,848.176880 606.846802,839.847107 604.286621,831.595703 
	C603.197998,828.087158 603.721924,826.257568 607.511353,825.577148 
	C609.621399,825.198364 611.643921,824.337585 613.709595,823.706055 
	C620.839050,821.526367 620.879272,821.516785 622.909241,828.439148 
	C626.181519,839.597839 629.395691,850.773621 632.768799,862.325195 
z"/>
<path fill="#000000" opacity="1.000000" stroke="none" 
	d="
M296.803070,186.049133 
	C297.794312,187.211990 298.564758,188.089798 299.238586,189.036362 
	C301.065765,191.603088 303.819397,194.000534 304.400848,196.835297 
	C305.073669,200.115677 300.588837,200.823700 298.790497,203.134369 
	C294.342346,208.849777 293.898163,214.917099 298.519989,221.520370 
	C303.479767,228.606522 308.655396,235.554291 314.019318,242.339111 
	C316.464935,245.432510 316.186554,247.232819 313.032501,249.569092 
	C302.178864,257.608551 302.218170,257.727325 294.009247,246.959000 
	C285.334076,235.579086 276.826843,224.069382 268.028259,212.786331 
	C265.354126,209.357086 264.657501,206.948151 269.100281,204.635544 
	C270.991028,203.651337 272.713379,202.217239 274.260162,200.726135 
	C277.076050,198.011627 279.735474,197.009201 282.620239,201.318420 
	C284.962250,195.742065 287.140320,190.701340 291.447723,187.076141 
	C292.911713,185.844025 294.259949,183.898621 296.803070,186.049133 
z"/>
<path fill="#000000" opacity="1.000000" stroke="none" 
	d="
M473.656342,129.281937 
	C473.478333,121.055267 473.478363,121.056252 481.183380,120.731064 
	C482.014465,120.695984 482.867523,120.748764 483.671478,120.577812 
	C488.034760,119.649994 491.941010,119.414207 491.495789,126.385254 
	C496.619904,122.177315 501.458496,119.481712 507.194519,118.526176 
	C510.572266,117.963501 512.397522,118.816109 512.279907,122.474190 
	C512.274597,122.640053 512.292908,122.806610 512.298523,122.972908 
	C512.416077,126.457268 513.502930,130.291580 512.403809,133.336868 
	C511.049072,137.090118 506.285828,135.268311 503.150879,136.433029 
	C496.429810,138.930069 493.015930,145.155655 493.785370,153.824295 
	C494.475403,161.598526 494.762146,169.407761 495.334473,177.193634 
	C495.587616,180.637466 494.592865,182.250412 490.727875,182.451355 
	C477.311005,183.148941 477.084747,183.308685 476.032288,170.051163 
	C474.967194,156.634827 474.429169,143.176651 473.656342,129.281937 
z"/>
<path fill="#000000" opacity="1.000000" stroke="none" 
	d="
M549.683472,857.945435 
	C540.400269,862.949951 532.528503,856.809631 531.757935,850.136841 
	C531.105774,844.489319 534.081543,839.502136 539.390320,837.583740 
	C544.651978,835.682373 550.196289,837.749084 553.074585,842.684753 
	C556.150574,847.959595 555.146545,852.874451 549.683472,857.945435 
z"/>
<path fill="#000000" opacity="1.000000" stroke="none" 
	d="
M354.802490,200.222321 
	C359.059326,193.754883 364.672516,191.716171 370.155182,194.337921 
	C375.042480,196.674973 377.960510,202.655701 376.598877,207.544769 
	C374.853363,213.812180 368.411407,217.616852 362.350311,215.960052 
	C355.981842,214.219238 352.643311,207.554825 354.802490,200.222321 
z"/>
</svg>